<svg xmlns="http://www.w3.org/2000/svg" xmlns:xlink="http://www.w3.org/1999/xlink" fill="none" version="1.1" width="43" height="40" viewBox="0 0 43 40"><g transform="matrix(-1,0,0,1,86,0)"><path d="" fill="#615D5D" fill-opacity="0" style="mix-blend-mode:passthrough"/><path d="M51.068960000000004,37.9641L51.068960000000004,19.6422L45.5105,19.6421C44.60638,19.6421,44.16645,18.5376,44.82296,17.916L63.1846,0.530034C63.9303,-0.176678,65.0697,-0.176678,65.8154,0.530034L84.17699999999999,17.916C84.8335,18.5376,84.39359999999999,19.6421,83.48949999999999,19.6421L79.931,19.6422L77.931,19.6422L77.931,37.9641C77.931,39.0885,77.05619999999999,40,75.9768,40L53.0232,40C51.94374,40,51.068960000000004,39.0885,51.068960000000004,37.9641ZM75.931,37.9641L75.931,17.6422L80.979,17.6422L64.5,2.03883L48.02102,17.6422L53.069,17.6422L53.069,37.9641L53.0232,38L75.9768,38L75.931,37.9641Z" fill-rule="evenodd" fill="#313131" fill-opacity="1"/></g></svg>