<svg xmlns="http://www.w3.org/2000/svg" xmlns:xlink="http://www.w3.org/1999/xlink" fill="none" version="1.1" width="106.00000908646234" height="119.00000809382345" viewBox="0 0 106.00000908646234 119.00000809382345"><g transform="matrix(1,-7.63568266393122e-8,7.63568266393122e-8,1,-7.635743881628798e-8,7.635683241247193e-8)"><path d="M12.808000076356628,30.776008017466825Q17.416000076356628,30.776008017466825,20.206000076356627,28.292008017466827Q22.996000076356626,25.808008017466825,22.996000076356626,20.804008017466824Q22.996000076356626,15.800008017466826,19.846000076356628,12.848008017466826Q16.696000076356626,9.896008017466826,12.088000076356627,9.896008017466826Q8.812000076356629,9.896008017466826,7.048000076356628,10.040008017466825L7.048000076356628,30.524008017466826Q9.208000076356628,30.776008017466825,12.808000076356628,30.776008017466825ZM12.088000076356627,8.420008017466825Q17.488000076356627,8.420008017466825,21.10600007635663,11.750008017466826Q24.724000076356628,15.080008017466826,24.724000076356628,20.804008017466824Q24.724000076356628,26.528008017466824,21.394000076356626,29.408008017466827Q18.064000076356628,32.28800801746682,12.808000076356628,32.28800801746682Q9.172000076356628,32.28800801746682,5.320000076356628,31.928008017466826L5.320000076356628,8.636008017466825Q8.200000076356627,8.420008017466825,12.088000076356627,8.420008017466825ZM42.25600007635663,32.360008017466825Q37.25200007635663,32.360008017466825,33.86800007635663,28.868008017466824Q30.48400007635663,25.376008017466827,30.48400007635663,20.318008017466827Q30.48400007635663,15.260008017466825,33.86800007635663,11.768008017466826Q37.25200007635663,8.276008017466825,42.25600007635663,8.276008017466825Q47.260000076356626,8.276008017466825,50.644000076356626,11.768008017466826Q54.028000076356626,15.260008017466825,54.028000076356626,20.318008017466827Q54.028000076356626,25.376008017466827,50.644000076356626,28.868008017466824Q47.260000076356626,32.360008017466825,42.25600007635663,32.360008017466825ZM42.27400007635663,9.752008017466826Q37.93600007635663,9.752008017466826,35.074000076356626,12.812008017466825Q32.21200007635663,15.872008017466825,32.21200007635663,20.318008017466827Q32.21200007635663,24.764008017466825,35.074000076356626,27.806008017466826Q37.93600007635663,30.848008017466825,42.27400007635663,30.848008017466825Q46.61200007635663,30.848008017466825,49.45600007635663,27.806008017466826Q52.300000076356625,24.764008017466825,52.300000076356625,20.318008017466827Q52.300000076356625,15.872008017466825,49.45600007635663,12.812008017466825Q46.61200007635663,9.752008017466826,42.27400007635663,9.752008017466826ZM61.22800007635663,32.000008017466826L61.22800007635663,8.492008017466826L62.02000007635663,8.492008017466826L77.35600007635662,26.132008017466827Q78.18400007635663,27.068008017466827,78.88600007635662,27.986008017466826Q79.58800007635662,28.904008017466825,79.62400007635662,28.940008017466827Q79.55200007635663,28.076008017466826,79.55200007635663,25.556008017466826L79.55200007635663,8.636008017466825L81.20800007635663,8.636008017466825L81.20800007635663,32.144008017466824L80.41600007635662,32.144008017466824L64.79200007635663,14.216008017466825L62.812000076356625,11.804008017466826Q62.88400007635663,12.524008017466825,62.88400007635663,15.188008017466826L62.88400007635663,32.000008017466826L61.22800007635663,32.000008017466826ZM94.02400007635663,10.112008017466826L86.10400007635663,10.112008017466826L86.10400007635663,8.636008017466825L103.56400007635662,8.636008017466825L103.56400007635662,10.112008017466826L95.64400007635663,10.112008017466826L95.64400007635663,32.000008017466826L94.02400007635663,32.000008017466826L94.02400007635663,10.112008017466826ZM16.80400007635663,46.412008017466825Q12.088000076356627,46.412008017466825,9.100000076356627,49.796008017466825Q6.112000076356628,53.180008017466825,6.112000076356628,58.09400801746683Q6.112000076356628,63.00800801746683,9.496000076356628,66.42800801746682Q12.880000076356628,69.84800801746682,17.740000076356626,69.84800801746682Q21.916000076356628,69.84800801746682,24.688000076356627,68.69600801746682L24.688000076356627,58.11200801746683L26.416000076356628,58.11200801746683L26.416000076356628,69.48800801746683Q23.284000076356627,71.43200801746683,17.650000076356626,71.43200801746683Q12.016000076356628,71.43200801746683,8.128000076356628,67.56200801746682Q4.240000076356628,63.692008017466826,4.240000076356628,58.09400801746683Q4.240000076356628,52.49600801746683,7.7680000763566275,48.662008017466825Q11.296000076356627,44.82800801746683,16.80400007635663,44.82800801746683Q21.124000076356626,44.82800801746683,25.552000076356627,46.268008017466826L25.084000076356627,47.708008017466824Q20.764000076356627,46.412008017466825,16.80400007635663,46.412008017466825ZM37.41400007635663,67.58000801746682Q33.83200007635663,63.72800801746683,33.83200007635663,58.11200801746683Q33.83200007635663,52.49600801746683,37.41400007635663,48.662008017466825Q40.99600007635663,44.82800801746683,46.46800007635663,44.82800801746683Q51.940000076356625,44.82800801746683,55.54000007635663,48.662008017466825Q59.14000007635663,52.49600801746683,59.14000007635663,58.11200801746683Q59.14000007635663,63.72800801746683,55.54000007635663,67.58000801746682Q51.940000076356625,71.43200801746683,46.46800007635663,71.43200801746683Q40.99600007635663,71.43200801746683,37.41400007635663,67.58000801746682ZM38.69200007635663,49.778008017466824Q35.70400007635663,53.144008017466824,35.70400007635663,58.11200801746683Q35.70400007635663,63.080008017466824,38.71000007635663,66.46400801746682Q41.71600007635663,69.84800801746682,46.486000076356625,69.84800801746682Q51.25600007635663,69.84800801746682,54.26200007635663,66.46400801746682Q57.26800007635663,63.080008017466824,57.26800007635663,58.11200801746683Q57.26800007635663,53.144008017466824,54.26200007635663,49.778008017466824Q51.25600007635663,46.412008017466825,46.46800007635663,46.412008017466825Q41.68000007635663,46.412008017466825,38.69200007635663,49.778008017466824ZM5.7520000763566275,84.33200801746682Q8.560000076356626,84.11600801746683,11.494000076356627,84.11600801746683Q14.428000076356629,84.11600801746683,16.570000076356628,85.55600801746682Q18.712000076356627,86.99600801746682,18.712000076356627,89.73200801746682Q18.712000076356627,91.78400801746683,17.578000076356627,93.54800801746683Q16.44400007635663,95.31200801746682,14.860000076356627,96.21200801746683Q17.416000076356628,97.00400801746683,19.144000076356626,98.94800801746682Q20.872000076356628,100.89200801746682,20.872000076356628,103.30400801746683Q20.872000076356628,106.68800801746683,18.730000076356628,108.45200801746682Q16.58800007635663,110.21600801746682,12.862000076356628,110.21600801746682Q9.136000076356627,110.21600801746682,5.7520000763566275,109.92800801746682L5.7520000763566275,84.33200801746682ZM13.060000076356628,108.66800801746683Q15.688000076356628,108.66800801746683,17.380000076356627,107.21000801746682Q19.072000076356627,105.75200801746682,19.072000076356627,103.48400801746682Q19.072000076356627,101.21600801746682,17.43400007635663,99.56000801746683Q15.796000076356627,97.90400801746682,12.952000076356628,97.29200801746683Q11.620000076356627,97.00400801746683,9.874000076356628,97.00400801746683Q8.128000076356628,97.00400801746683,7.480000076356628,97.00400801746683L7.480000076356628,108.48800801746683Q9.064000076356628,108.66800801746683,13.060000076356628,108.66800801746683ZM16.98400007635663,89.67800801746682Q16.98400007635663,87.71600801746682,15.346000076356628,86.63600801746682Q13.708000076356628,85.55600801746682,11.674000076356627,85.55600801746682Q9.640000076356628,85.55600801746682,7.480000076356628,85.70000801746683L7.480000076356628,95.52800801746683Q7.948000076356628,95.52800801746683,9.244000076356627,95.52800801746683Q10.540000076356627,95.52800801746683,13.060000076356628,95.74400801746683Q14.680000076356627,94.88000801746682,15.832000076356628,93.26000801746683Q16.98400007635663,91.64000801746683,16.98400007635663,89.67800801746682ZM31.924000076356627,101.07200801746683L28.21600007635663,110.00000801746683L26.380000076356627,110.00000801746683L37.21600007635663,84.08000801746682L38.224000076356624,84.08000801746682L49.096000076356624,110.00000801746683L47.15200007635663,110.00000801746683L43.44400007635663,101.07200801746683L31.924000076356627,101.07200801746683ZM37.61200007635663,86.96000801746682Q37.57600007635663,86.99600801746682,37.46800007635663,87.39200801746682Q36.964000076356626,88.94000801746682,36.49600007635663,90.02000801746682L32.53600007635663,99.59600801746683L42.83200007635663,99.59600801746683L38.87200007635663,90.05600801746682Q37.61200007635663,87.32000801746682,37.61200007635663,86.96000801746682ZM68.39200007635662,110.43200801746683Q62.77600007635663,110.43200801746683,58.74400007635663,106.59800801746682Q54.71200007635663,102.76400801746682,54.71200007635663,97.13000801746682Q54.71200007635663,91.49600801746682,58.24000007635663,87.66200801746683Q61.76800007635663,83.82800801746683,67.27600007635662,83.82800801746683Q71.59600007635663,83.82800801746683,76.02400007635663,85.26800801746683L75.55600007635663,86.70800801746682Q71.23600007635663,85.41200801746683,67.27600007635662,85.41200801746683Q62.56000007635663,85.41200801746683,59.57200007635663,88.79600801746683Q56.58400007635663,92.18000801746683,56.58400007635663,97.07600801746682Q56.58400007635663,101.97200801746682,60.05800007635663,105.41000801746682Q63.532000076356624,108.84800801746682,68.39200007635662,108.84800801746682Q72.64000007635663,108.84800801746682,75.73600007635663,107.55200801746683L76.27600007635662,108.77600801746682Q74.90800007635663,109.56800801746682,72.69400007635663,110.00000801746683Q70.48000007635663,110.43200801746683,68.39200007635662,110.43200801746683ZM100.68400007635663,84.26000801746683L89.74000007635662,96.71600801746682Q91.93600007635663,99.34400801746682,94.79800007635663,102.58400801746683Q97.66000007635662,105.82400801746682,98.50600007635663,106.58000801746682Q99.35200007635663,107.33600801746682,99.83800007635662,107.71400801746682Q100.32400007635663,108.09200801746682,101.33200007635662,108.54200801746683Q102.34000007635663,108.99200801746683,103.49200007635663,109.13600801746682L103.45600007635663,110.28800801746682Q101.29600007635663,110.25200801746682,99.89200007635662,109.62200801746683Q98.48800007635663,108.99200801746683,97.44400007635663,107.96600801746682Q96.40000007635663,106.94000801746682,92.89000007635663,102.92600801746683Q89.38000007635662,98.91200801746683,87.61600007635663,96.78800801746682L98.66800007635663,84.26000801746683L100.68400007635663,84.26000801746683ZM86.93200007635663,84.26000801746683L86.93200007635663,110.00000801746683L85.20400007635662,110.00000801746683L85.20400007635662,84.26000801746683L86.93200007635663,84.26000801746683Z" fill="#3D3D3D" fill-opacity="1"/><path d="M33.14990007635663,29.563908017466826Q36.82860007635663,33.360008017466825,42.25600007635663,33.360008017466825Q47.68350007635663,33.360008017466825,51.362100076356626,29.563908017466826Q55.028000076356626,25.781008017466824,55.028000076356626,20.318008017466827Q55.028000076356626,14.855008017466826,51.362100076356626,11.072108017466826Q47.68350007635663,7.276008017466825,42.25600007635663,7.276008017466825Q36.82860007635663,7.276008017466825,33.14990007635663,11.072108017466826Q29.48400007635663,14.854908017466826,29.48400007635663,20.318008017466827Q29.48400007635663,25.781108017466824,33.14990007635663,29.563908017466826ZM21.78320007635663,11.014208017466826Q17.878200076356627,7.4200080174668255,12.088000076356627,7.4200080174668255Q8.162560076356627,7.4200080174668255,5.245210076356628,7.638808017466825L4.320000076356628,7.708198017466826L4.320000076356628,32.83890801746682L5.226950076356628,32.92370801746682Q9.125350076356627,33.28800801746682,12.808000076356628,33.28800801746682Q18.436500076356626,33.28800801746682,22.04820007635663,30.164408017466826Q25.724000076356628,26.985308017466824,25.724000076356628,20.804008017466824Q25.724000076356628,14.641308017466825,21.78320007635663,11.014208017466826ZM60.22800007635663,7.4920080174668255L60.22800007635663,33.000008017466826L63.88400007635663,33.000008017466826L63.88400007635663,15.188008017466826Q63.88400007635663,14.927008017466825,63.883300076356626,14.685108017466826L64.02840007635663,14.861908017466826L79.96100007635663,33.144008017466824L82.20800007635663,33.144008017466824L82.20800007635663,7.636008017466826L78.55200007635663,7.636008017466826L78.55200007635663,25.556008017466826Q78.55200007635663,25.776008017466825,78.55260007635663,25.984508017466826Q78.33600007635663,25.730608017466825,78.11070007635662,25.475908017466825L62.47570007635663,7.4920080174668255L60.22800007635663,7.4920080174668255ZM79.56230007635662,27.225108017466827Q79.57920007635663,28.402708017466825,79.62400007635662,28.940008017466827Q79.58800007635662,28.904008017466825,78.88600007635662,27.986008017466826Q78.73020007635662,27.782308017466825,78.56830007635662,27.577708017466826Q78.00030007635662,26.860308017466824,77.35600007635662,26.132008017466827L62.22800007635663,8.731258017466825L62.02000007635663,8.492008017466826L61.22800007635663,8.492008017466826L61.22800007635663,32.000008017466826L62.88400007635663,32.000008017466826L62.88400007635663,15.188008017466826Q62.88400007635663,14.183508017466826,62.87380007635663,13.455308017466825Q62.85680007635663,12.252508017466825,62.812000076356625,11.804008017466826L63.86750007635663,13.089708017466826L64.79200007635663,14.216008017466825L80.20800007635663,31.905308017466826L80.41600007635662,32.144008017466824L81.20800007635663,32.144008017466824L81.20800007635663,8.636008017466825L79.55200007635663,8.636008017466825L79.55200007635663,25.556008017466826Q79.55200007635663,26.509208017466825,79.56230007635662,27.225108017466827ZM94.02400007635663,11.112008017466826L94.02400007635663,10.112008017466826L86.10400007635663,10.112008017466826L86.10400007635663,8.636008017466825L103.56400007635662,8.636008017466825L103.56400007635662,10.112008017466826L95.64400007635663,10.112008017466826L95.64400007635663,32.000008017466826L94.02400007635663,32.000008017466826L94.02400007635663,11.112008017466826ZM96.64400007635663,11.112008017466826L104.56400007635662,11.112008017466826L104.56400007635662,7.636008017466826L85.10400007635663,7.636008017466826L85.10400007635663,11.112008017466826L93.02400007635663,11.112008017466826L93.02400007635663,33.000008017466826L96.64400007635663,33.000008017466826L96.64400007635663,11.112008017466826ZM33.86800007635663,28.868008017466824Q37.25200007635663,32.360008017466825,42.25600007635663,32.360008017466825Q47.260000076356626,32.360008017466825,50.644000076356626,28.868008017466824Q54.028000076356626,25.376008017466827,54.028000076356626,20.318008017466827Q54.028000076356626,15.260008017466825,50.644000076356626,11.768008017466826Q47.260000076356626,8.276008017466825,42.25600007635663,8.276008017466825Q37.25200007635663,8.276008017466825,33.86800007635663,11.768008017466826Q30.48400007635663,15.260008017466825,30.48400007635663,20.318008017466827Q30.48400007635663,25.376008017466827,33.86800007635663,28.868008017466824ZM21.10600007635663,11.750008017466826Q17.488000076356627,8.420008017466825,12.088000076356627,8.420008017466825Q8.200000076356627,8.420008017466825,5.320000076356628,8.636008017466825L5.320000076356628,31.928008017466826Q9.172000076356628,32.28800801746682,12.808000076356628,32.28800801746682Q18.064000076356628,32.28800801746682,21.394000076356626,29.408008017466827Q24.724000076356628,26.528008017466824,24.724000076356628,20.804008017466824Q24.724000076356628,15.080008017466826,21.10600007635663,11.750008017466826ZM35.074000076356626,12.812008017466825Q37.93600007635663,9.752008017466826,42.27400007635663,9.752008017466826Q46.61200007635663,9.752008017466826,49.45600007635663,12.812008017466825Q52.300000076356625,15.872008017466825,52.300000076356625,20.318008017466827Q52.300000076356625,24.764008017466825,49.45600007635663,27.806008017466826Q46.61200007635663,30.848008017466825,42.27400007635663,30.848008017466825Q37.93600007635663,30.848008017466825,35.074000076356626,27.806008017466826Q32.21200007635663,24.764008017466825,32.21200007635663,20.318008017466827Q32.21200007635663,15.872008017466825,35.074000076356626,12.812008017466825ZM20.206000076356627,28.292008017466827Q17.416000076356628,30.776008017466825,12.808000076356628,30.776008017466825Q9.208000076356628,30.776008017466825,7.048000076356628,30.524008017466826L7.048000076356628,10.040008017466825Q8.812000076356629,9.896008017466826,12.088000076356627,9.896008017466826Q16.696000076356626,9.896008017466826,19.846000076356628,12.848008017466826Q22.996000076356626,15.800008017466826,22.996000076356626,20.804008017466824Q22.996000076356626,25.808008017466825,20.206000076356627,28.292008017466827ZM8.048000076356628,10.977048017466826Q9.632560076356627,10.896008017466826,12.088000076356627,10.896008017466826Q16.300700076356627,10.896008017466826,19.162200076356626,13.577708017466826Q21.996000076356626,16.233308017466825,21.996000076356626,20.804008017466824Q21.996000076356626,25.359408017466826,19.541000076356628,27.545108017466827Q17.035300076356627,29.776008017466825,12.808000076356628,29.776008017466825Q9.963870076356628,29.776008017466825,8.048000076356628,29.617808017466825L8.048000076356628,10.977048017466826ZM35.804300076356625,13.495108017466826Q38.36990007635663,10.752008017466826,42.27400007635663,10.752008017466826Q46.17620007635663,10.752008017466826,48.72350007635663,13.492808017466826Q51.300000076356625,16.265008017466826,51.300000076356625,20.318008017466827Q51.300000076356625,24.369408017466824,48.725500076356624,27.123108017466826Q46.178000076356625,29.848008017466825,42.27400007635663,29.848008017466825Q38.36820007635663,29.848008017466825,35.80230007635663,27.120808017466825Q33.21200007635663,24.367508017466825,33.21200007635663,20.318008017466827Q33.21200007635663,16.266808017466825,35.804300076356625,13.495108017466826ZM9.849600076356628,50.45790801746683Q12.539100076356627,47.412008017466825,16.80400007635663,47.412008017466825Q20.617300076356628,47.412008017466825,24.79670007635663,48.66580801746682L25.73290007635663,48.946708017466825L26.81210007635663,45.62620801746682L25.861300076356628,45.317008017466826Q21.282500076356627,43.82800801746683,16.80400007635663,43.82800801746683Q10.857250076356628,43.82800801746683,7.032140076356628,47.98490801746683Q3.240000076356628,52.105908017466824,3.240000076356628,58.09400801746683Q3.240000076356628,64.10760801746682,7.422540076356627,68.27070801746683Q11.603100076356627,72.43200801746683,17.650000076356626,72.43200801746683Q23.569100076356627,72.43200801746683,26.943400076356628,70.33760801746682L27.416000076356628,70.04430801746683L27.416000076356628,57.11200801746683L23.688000076356627,57.11200801746683L23.688000076356627,68.00660801746683Q21.25720007635663,68.84800801746682,17.740000076356626,68.84800801746682Q13.297300076356628,68.84800801746682,10.206840076356627,65.72460801746682Q7.112000076356628,62.59690801746682,7.112000076356628,58.09400801746683Q7.112000076356628,53.55830801746683,9.849600076356628,50.45790801746683ZM24.688000076356627,68.69600801746682Q21.916000076356628,69.84800801746682,17.740000076356626,69.84800801746682Q12.880000076356628,69.84800801746682,9.496000076356628,66.42800801746682Q6.112000076356628,63.00800801746683,6.112000076356628,58.09400801746683Q6.112000076356628,53.180008017466825,9.100000076356627,49.796008017466825Q12.088000076356627,46.412008017466825,16.80400007635663,46.412008017466825Q20.764000076356627,46.412008017466825,25.084000076356627,47.708008017466824L25.552000076356627,46.268008017466826L25.54070007635663,46.264308017466824Q25.067800076356626,46.11070801746683,24.596200076356627,45.97360801746682Q20.657100076356627,44.82800801746683,16.80400007635663,44.82800801746683Q11.296000076356627,44.82800801746683,7.7680000763566275,48.662008017466825Q4.240000076356628,52.49600801746683,4.240000076356628,58.09400801746683Q4.240000076356628,63.692008017466826,8.128000076356628,67.56200801746682Q12.016000076356628,71.43200801746683,17.650000076356626,71.43200801746683Q23.284000076356627,71.43200801746683,26.416000076356628,69.48800801746683L26.416000076356628,58.11200801746683L24.688000076356627,58.11200801746683L24.688000076356627,68.69600801746682ZM32.83200007635663,58.11200801746683Q32.83200007635663,64.12110801746682,36.68170007635663,68.26100801746682Q40.56040007635663,72.43200801746683,46.46800007635663,72.43200801746683Q52.37420007635663,72.43200801746683,56.27060007635663,68.26280801746682Q60.14000007635663,64.12250801746683,60.14000007635663,58.11200801746683Q60.14000007635663,52.10010801746682,56.269000076356626,47.977508017466825Q52.372800076356626,43.82800801746683,46.46800007635663,43.82800801746683Q40.561800076356626,43.82800801746683,36.68330007635663,47.97930801746683Q32.83200007635663,52.10150801746683,32.83200007635663,58.11200801746683ZM33.83200007635663,58.11200801746683Q33.83200007635663,63.72800801746683,37.41400007635663,67.58000801746682Q40.99600007635663,71.43200801746683,46.46800007635663,71.43200801746683Q51.940000076356625,71.43200801746683,55.54000007635663,67.58000801746682Q59.14000007635663,63.72800801746683,59.14000007635663,58.11200801746683Q59.14000007635663,52.49600801746683,55.54000007635663,48.662008017466825Q51.940000076356625,44.82800801746683,46.46800007635663,44.82800801746683Q40.99600007635663,44.82800801746683,37.41400007635663,48.662008017466825Q33.83200007635663,52.49600801746683,33.83200007635663,58.11200801746683ZM35.70400007635663,58.11200801746683Q35.70400007635663,53.144008017466824,38.69200007635663,49.778008017466824Q41.68000007635663,46.412008017466825,46.46800007635663,46.412008017466825Q51.25600007635663,46.412008017466825,54.26200007635663,49.778008017466824Q57.26800007635663,53.144008017466824,57.26800007635663,58.11200801746683Q57.26800007635663,63.080008017466824,54.26200007635663,66.46400801746682Q51.25600007635663,69.84800801746682,46.486000076356625,69.84800801746682Q41.71600007635663,69.84800801746682,38.71000007635663,66.46400801746682Q35.70400007635663,63.080008017466824,35.70400007635663,58.11200801746683ZM36.70400007635663,58.11200801746683Q36.70400007635663,53.52380801746683,39.439800076356626,50.44190801746682Q42.12950007635663,47.412008017466825,46.46800007635663,47.412008017466825Q50.80830007635663,47.412008017466825,53.51610007635663,50.444108017466824Q56.26800007635663,53.52550801746683,56.26800007635663,58.11200801746683Q56.26800007635663,62.70000801746683,53.51440007635663,65.79990801746682Q50.80670007635663,68.84800801746682,46.486000076356625,68.84800801746682Q42.16530007635663,68.84800801746682,39.45760007635663,65.79990801746682Q36.70400007635663,62.70000801746683,36.70400007635663,58.11200801746683ZM58.05490007635663,107.32300801746682Q62.37650007635663,111.43200801746683,68.39200007635662,111.43200801746683Q70.57660007635663,111.43200801746683,72.88550007635662,110.98100801746682Q75.26400007635662,110.51700801746682,76.77700007635663,109.64100801746683L77.55270007635663,109.19200801746682L76.25490007635663,106.25100801746683L75.34990007635663,106.63000801746682Q72.43910007635662,107.84800801746682,68.39200007635662,107.84800801746682Q63.943200076356625,107.84800801746682,60.76140007635663,104.69900801746682Q57.58400007635663,101.55500801746683,57.58400007635663,97.07600801746682Q57.58400007635663,92.55830801746683,60.321600076356624,89.45790801746682Q63.01100007635663,86.41200801746683,67.27600007635662,86.41200801746683Q71.08920007635663,86.41200801746683,75.26870007635662,87.66580801746683L76.20490007635662,87.94670801746683L77.28410007635662,84.62620801746682L76.33330007635662,84.31700801746682Q71.75450007635662,82.82800801746683,67.27600007635662,82.82800801746683Q61.32920007635663,82.82800801746683,57.50410007635663,86.98490801746682Q53.71200007635663,91.10590801746683,53.71200007635663,97.13000801746682Q53.71200007635663,103.19300801746682,58.05490007635663,107.32300801746682ZM31.924000076356627,101.07200801746683L28.21600007635663,110.00000801746683L26.380000076356627,110.00000801746683L26.79810007635663,109.00000801746683L37.21600007635663,84.08000801746682L38.224000076356624,84.08000801746682L38.47630007635663,84.68160801746683L38.61200007635663,85.00500801746682L48.67660007635663,109.00000801746683L49.096000076356624,110.00000801746683L47.15200007635663,110.00000801746683L43.44400007635663,101.07200801746683L31.924000076356627,101.07200801746683ZM42.776500076356626,102.07200801746683L46.484500076356625,111.00000801746683L50.59980007635663,111.00000801746683L38.88900007635663,83.08000801746682L36.550200076356624,83.08000801746682L24.878100076356628,111.00000801746683L28.88350007635663,111.00000801746683L32.591500076356624,102.07200801746683L42.776500076356626,102.07200801746683ZM37.093700076356626,88.49110801746683Q36.78790007635663,89.34650801746683,36.49600007635663,90.02000801746682L32.53600007635663,99.59600801746683L42.83200007635663,99.59600801746683L42.416900076356626,98.59600801746683L38.87200007635663,90.05600801746682Q38.44370007635663,89.12590801746683,38.16100007635663,88.47040801746682Q37.61200007635663,87.19760801746682,37.61200007635663,86.96000801746682Q37.57600007635663,86.99600801746682,37.46800007635663,87.39200801746682Q37.27830007635663,87.97480801746683,37.093700076356626,88.49110801746683ZM37.663700076356626,89.81470801746683Q37.537600076356625,90.13150801746683,37.41360007635663,90.41760801746682L34.031600076356625,98.59600801746683L41.33420007635663,98.59600801746683L37.95570007635663,90.45700801746682Q37.80080007635663,90.12030801746683,37.663700076356626,89.81470801746683ZM11.494000076356627,83.11600801746683Q8.521660076356628,83.11600801746683,5.675300076356628,83.33490801746683L4.7520000763566275,83.40600801746683L4.7520000763566275,110.84700801746682L5.667200076356628,110.92400801746683Q9.093630076356627,111.21600801746682,12.862000076356628,111.21600801746682Q16.946800076356627,111.21600801746682,19.365700076356628,109.22400801746683Q21.872000076356628,107.16000801746682,21.872000076356628,103.30400801746683Q21.872000076356628,100.51180801746682,19.89140007635663,98.28360801746683Q18.59530007635663,96.82550801746683,16.881800076356626,95.95380801746683Q17.729200076356626,95.16200801746683,18.419200076356628,94.08880801746683Q19.712000076356627,92.07770801746682,19.712000076356627,89.73200801746682Q19.712000076356627,86.46330801746683,17.127900076356628,84.72610801746683Q14.732900076356628,83.11600801746683,11.494000076356627,83.11600801746683ZM16.026700076356626,96.65290801746683Q17.826100076356628,97.46540801746683,19.144000076356626,98.94800801746682Q20.872000076356628,100.89200801746682,20.872000076356628,103.30400801746683Q20.872000076356628,106.68800801746683,18.730000076356628,108.45200801746682Q16.58800007635663,110.21600801746682,12.862000076356628,110.21600801746682Q9.136000076356627,110.21600801746682,5.7520000763566275,109.92800801746682L5.7520000763566275,84.33200801746682Q8.560000076356626,84.11600801746683,11.494000076356627,84.11600801746683Q14.428000076356629,84.11600801746683,16.570000076356628,85.55600801746682Q18.712000076356627,86.99600801746682,18.712000076356627,89.73200801746682Q18.712000076356627,91.78400801746683,17.578000076356627,93.54800801746683Q16.826400076356627,94.71720801746683,15.877100076356628,95.50680801746682Q15.394100076356628,95.90850801746683,14.860000076356627,96.21200801746683Q15.466700076356627,96.40000801746683,16.026700076356626,96.65290801746683ZM87.93200007635663,94.91820801746682L87.93200007635663,83.26000801746683L84.20400007635662,83.26000801746683L84.20400007635662,111.00000801746683L87.93200007635663,111.00000801746683L87.93200007635663,98.71810801746683Q89.56970007635663,100.64810801746683,92.13720007635663,103.58400801746683Q95.67200007635662,107.62700801746682,96.74310007635663,108.67900801746683Q97.91500007635663,109.83100801746683,99.48260007635663,110.53400801746683Q101.07400007635663,111.24800801746683,103.43900007635662,111.28800801746682L104.42500007635662,111.30400801746683L104.52000007635662,108.25700801746683L103.61600007635663,108.14400801746683Q102.61200007635662,108.01800801746683,101.74000007635662,107.62900801746683Q100.84230007635662,107.22800801746682,100.45190007635662,106.92500801746682Q99.99300007635662,106.56800801746682,99.17230007635663,105.83400801746683Q98.37040007635663,105.11800801746682,95.54750007635663,101.92200801746682Q93.04710007635663,99.09150801746682,91.05800007635663,96.73100801746682L101.43500007635663,84.92000801746683L102.89400007635663,83.26000801746683L98.21670007635663,83.26000801746683L87.93200007635663,94.91820801746682ZM87.93200007635663,96.42980801746683L87.61600007635663,96.78800801746682Q87.76710007635663,96.96990801746682,87.93200007635663,97.16690801746682Q89.68160007635663,99.25700801746683,92.89000007635663,102.92600801746683Q96.40000007635663,106.94000801746682,97.44400007635663,107.96600801746682Q98.48800007635663,108.99200801746683,99.89200007635662,109.62200801746683Q100.95710007635662,110.10000801746682,102.45700007635662,110.23600801746683Q102.73300007635663,110.26100801746682,103.02300007635662,110.27400801746683Q103.23600007635663,110.28400801746683,103.45600007635663,110.28800801746682L103.49200007635663,109.13600801746682Q102.34000007635663,108.99200801746683,101.33200007635662,108.54200801746683Q100.32400007635663,108.09200801746682,99.83800007635662,107.71400801746682Q99.35200007635663,107.33600801746682,98.50600007635663,106.58000801746682Q97.66000007635662,105.82400801746682,94.79800007635663,102.58400801746683Q91.93600007635663,99.34400801746682,89.74000007635662,96.71600801746682L99.80540007635663,85.26000801746683L100.68400007635663,84.26000801746683L98.66800007635663,84.26000801746683L87.93200007635663,96.42980801746683ZM86.93200007635663,96.05180801746683L86.93200007635663,84.26000801746683L85.20400007635662,84.26000801746683L85.20400007635662,110.00000801746683L86.93200007635663,110.00000801746683L86.93200007635663,96.05180801746683ZM58.74400007635663,106.59800801746682Q62.77600007635663,110.43200801746683,68.39200007635662,110.43200801746683Q70.48000007635663,110.43200801746683,72.69400007635663,110.00000801746683Q74.90800007635663,109.56800801746682,76.27600007635662,108.77600801746682L75.73600007635663,107.55200801746683Q72.64000007635663,108.84800801746682,68.39200007635662,108.84800801746682Q63.532000076356624,108.84800801746682,60.05800007635663,105.41000801746682Q56.58400007635663,101.97200801746682,56.58400007635663,97.07600801746682Q56.58400007635663,92.18000801746683,59.57200007635663,88.79600801746683Q62.56000007635663,85.41200801746683,67.27600007635662,85.41200801746683Q71.23600007635663,85.41200801746683,75.55600007635663,86.70800801746682L76.02400007635663,85.26800801746683L76.01270007635662,85.26430801746683Q75.53990007635663,85.11080801746682,75.06820007635663,84.97360801746683Q71.12910007635662,83.82800801746683,67.27600007635662,83.82800801746683Q61.76800007635663,83.82800801746683,58.24000007635663,87.66200801746683Q54.71200007635663,91.49600801746682,54.71200007635663,97.13000801746682Q54.71200007635663,102.76400801746682,58.74400007635663,106.59800801746682ZM15.346000076356628,86.63600801746682Q16.98400007635663,87.71600801746682,16.98400007635663,89.67800801746682Q16.98400007635663,91.64000801746683,15.832000076356628,93.26000801746683Q14.680000076356627,94.88000801746682,13.060000076356628,95.74400801746683Q10.540000076356627,95.52800801746683,9.244000076356627,95.52800801746683L7.480000076356628,95.52800801746683L7.480000076356628,85.70000801746683Q9.640000076356628,85.55600801746682,11.674000076356627,85.55600801746682Q13.708000076356628,85.55600801746682,15.346000076356628,86.63600801746682ZM8.480000076356628,86.64210801746682Q10.115300076356627,86.55600801746682,11.674000076356627,86.55600801746682Q13.408000076356627,86.55600801746682,14.795500076356628,87.47090801746683Q15.984000076356628,88.25450801746682,15.984000076356628,89.67800801746682Q15.984000076356628,91.32070801746683,15.017000076356627,92.68050801746682Q14.092200076356628,93.98100801746682,12.838400076356628,94.72180801746683Q10.501350076356628,94.52800801746683,9.244000076356627,94.52800801746683L8.480000076356628,94.52800801746683L8.480000076356628,86.64210801746682ZM16.727200076356628,106.45200801746682Q15.316600076356627,107.66800801746683,13.060000076356628,107.66800801746683Q10.079930076356627,107.66800801746683,8.480000076356628,107.56900801746683L8.480000076356628,98.00400801746683L9.874000076356628,98.00400801746683Q11.513100076356627,98.00400801746683,12.741600076356628,98.26960801746682Q15.294500076356627,98.81900801746683,16.723000076356627,100.26320801746682Q18.072000076356627,101.62700801746682,18.072000076356627,103.48400801746682Q18.072000076356627,105.29400801746682,16.727200076356628,106.45200801746682ZM8.480000076356628,97.00400801746683L9.874000076356628,97.00400801746683Q11.620000076356627,97.00400801746683,12.952000076356628,97.29200801746683Q15.796000076356627,97.90400801746682,17.43400007635663,99.56000801746683Q19.072000076356627,101.21600801746682,19.072000076356627,103.48400801746682Q19.072000076356627,105.75200801746682,17.380000076356627,107.21000801746682Q15.688000076356628,108.66800801746683,13.060000076356628,108.66800801746683Q9.064000076356628,108.66800801746683,7.480000076356628,108.48800801746683L7.480000076356628,97.00400801746683L8.480000076356628,97.00400801746683Z" fill-rule="evenodd" fill="#3D3D3D" fill-opacity="1"/></g></svg>