<svg xmlns="http://www.w3.org/2000/svg" xmlns:xlink="http://www.w3.org/1999/xlink" fill="none" version="1.1" width="34" height="31" viewBox="0 0 34 31"><g><path d="" fill="#615D5D" fill-opacity="0" style="mix-blend-mode:passthrough"/><path d="M9.35,0C12.512,0,15.3,1.67568,17,3.35135C18.7,1.67568,21.488,0,24.65,0C29.8146,0,34,4.18919,34,10.0541C34,21.7838,21.25,28.4865,17,31C12.75,28.4865,0,21.7838,0,10.0541C0,4.18919,4.25,0,9.35,0ZM26.3221,21.9545Q23.1121,25.1101,17,28.6838Q10.8879,25.1101,7.67795,21.9545Q2,16.3726,2,10.0541Q2,6.52236,4.209,4.20888Q6.31812,2,9.35,2Q12.78,2,15.596,4.77572L17,6.15962L18.404,4.77572Q21.22,2,24.65,2Q27.7161,2,29.8119,4.20543Q32,6.50792,32,10.0541Q32,16.3726,26.3221,21.9545Z" fill-rule="evenodd" fill="#615D5D" fill-opacity="1"/></g></svg>