<svg xmlns="http://www.w3.org/2000/svg" xmlns:xlink="http://www.w3.org/1999/xlink" fill="none" version="1.1" width="98" height="98" viewBox="0 0 98 98"><g><path d="M42,42L42,5C42,2.23858,44.2386,0,47,0L51,0C53.7614,0,56,2.23858,56,5L56,42L93,42C95.7614,42,98,44.2386,98,47L98,51C98,53.7614,95.7614,56,93,56L56,56L56,93C56,95.7614,53.7614,98,51,98L47,98C44.2386,98,42,95.7614,42,93L42,56L5,56C2.23858,56,0,53.7614,0,51L0,47C0,44.2386,2.23858,42,5,42L42,42Z" fill="#615D5D" fill-opacity="1" style="mix-blend-mode:passthrough"/></g></svg>