<svg xmlns="http://www.w3.org/2000/svg" xmlns:xlink="http://www.w3.org/1999/xlink" fill="none" version="1.1" width="38" height="38" viewBox="0 0 38 38"><g><path d="M16.2857,16.2857L16.2857,2.71429C16.2857,1.21523,17.5009,0,19,0C20.4991,0,21.7143,1.21523,21.7143,2.71429L21.7143,16.2857L35.2857,16.2857C36.7848,16.2857,38,17.5009,38,19C38,20.4991,36.7848,21.7143,35.2857,21.7143L21.7143,21.7143L21.7143,35.2857C21.7143,36.7848,20.4991,38,19,38C17.5009,38,16.2857,36.7848,16.2857,35.2857L16.2857,21.7143L2.71429,21.7143C1.21523,21.7143,0,20.4991,0,19C0,17.5009,1.21523,16.2857,2.71429,16.2857L16.2857,16.2857Z" fill="#313131" fill-opacity="1" style="mix-blend-mode:passthrough"/></g></svg>