<svg xmlns="http://www.w3.org/2000/svg" xmlns:xlink="http://www.w3.org/1999/xlink" fill="none" version="1.1" width="36" height="40" viewBox="0 0 36 40"><g><g><g><ellipse cx="18.000000953674316" cy="11.578948020935059" rx="11.647059440612793" ry="11.578948020935059" fill="#313131" fill-opacity="0"/><ellipse cx="18.000000953674316" cy="11.578948020935059" rx="10.647059440612793" ry="10.578948020935059" fill-opacity="0" stroke-opacity="1" stroke="#313131" fill="none" stroke-width="2"/></g></g><g><path d="M0 32.26315879821777C0 28.39716554940222 3.1340067511844465 25.263158798217773 7 25.263158798217773L29 25.263158798217773C32.865993248815556 25.263158798217773 36 28.39716554940222 36 32.26315879821777L36 40.00000190734863C36 40.00000190734863 36 40.00000190734863 36 40.00000190734863L0 40.00000190734863C0 40.00000190734863 0 40.00000190734863 0 40.00000190734863Z" fill="#313131" fill-opacity="0"/><path d="M1 32.6315803527832C1 29.114398247703 3.851239449485229 26.263158798217773 7.36842155456543 26.263158798217773L28.63157844543457 26.263158798217773C32.14876055051477 26.263158798217773 35 29.114398247703 35 32.6315803527832L35 39.00000190734863C35 39.00000190734863 35 39.00000190734863 35 39.00000190734863L1 39.00000190734863C1 39.00000190734863 1 39.00000190734863 1 39.00000190734863Z" fill-opacity="0" stroke-opacity="1" stroke="#313131" fill="none" stroke-width="2"/></g></g></svg>