<svg xmlns="http://www.w3.org/2000/svg" xmlns:xlink="http://www.w3.org/1999/xlink" fill="none" version="1.1" width="105" height="52" viewBox="0 0 105 52"><g><g><path d="M8.664,20.16Q12.048,20.16,14.1,18.324Q16.152,16.488,16.152,12.792Q16.152,9.096,13.836,6.912Q11.52,4.728,8.112,4.728Q5.928,4.728,4.32,4.848L4.32,19.968Q5.88,20.16,8.664,20.16ZM8.112,3.672Q12.072,3.672,14.736,6.132Q17.4,8.592,17.4,12.816Q17.4,14.952,16.716,16.596Q16.032,18.24,14.832,19.224Q12.36,21.216,8.664,21.216Q6.24,21.216,3.168,20.952L3.168,3.84Q5.616,3.672,8.112,3.672ZM24.108,18.72Q21.72,16.152,21.72,12.408Q21.72,8.664,24.108,6.108Q26.496,3.552,30.144,3.552Q33.792,3.552,36.192,6.108Q38.592,8.664,38.592,12.408Q38.592,16.152,36.192,18.72Q33.792,21.288,30.144,21.288Q26.496,21.288,24.108,18.72ZM24.96,6.852Q22.968,9.096,22.968,12.408Q22.968,15.72,24.972,17.976Q26.976,20.232,30.156,20.232Q33.336,20.232,35.34,17.976Q37.344,15.72,37.344,12.408Q37.344,9.096,35.34,6.852Q33.336,4.608,30.144,4.608Q26.952,4.608,24.96,6.852ZM45.024,6.576L45.072,8.616L45.072,21L43.92,21L43.92,3.696L44.448,3.696L55.752,16.728Q56.904,18.096,57.528,18.912Q57.432,17.76,57.432,16.272L57.432,3.84L58.584,3.84L58.584,21.144L58.056,21.144L46.536,7.872Q45.336,6.504,45,6.048L45.024,6.576ZM68.088,4.848L62.28,4.848L62.28,3.84L75.048,3.84L75.048,4.848L69.24,4.848L69.24,21L68.088,21L68.088,4.848ZM10.536,30.608Q7.392,30.608,5.4,32.864Q3.408,35.12,3.408,38.396Q3.408,41.672,5.664,43.952Q7.92,46.232,11.16,46.232Q13.944,46.232,15.792,45.464L15.792,38.408L16.944,38.408L16.944,45.992Q14.856,47.288,11.1,47.288Q7.344,47.288,4.752,44.708Q2.16,42.128,2.16,38.396Q2.16,34.664,4.512,32.108Q6.864,29.552,10.536,29.552Q13.416,29.552,16.368,30.512L16.056,31.472Q13.176,30.608,10.536,30.608ZM24.276,44.72Q21.888,42.152,21.888,38.408Q21.888,34.664,24.276,32.108Q26.664,29.552,30.312,29.552Q33.96,29.552,36.36,32.108Q38.76,34.664,38.76,38.408Q38.76,42.152,36.36,44.72Q33.96,47.288,30.312,47.288Q26.664,47.288,24.276,44.72ZM25.128,32.852Q23.136,35.096,23.136,38.408Q23.136,41.72,25.14,43.976Q27.144,46.232,30.324,46.232Q33.504,46.232,35.508,43.976Q37.512,41.72,37.512,38.408Q37.512,35.096,35.508,32.852Q33.504,30.608,30.312,30.608Q27.12,30.608,25.128,32.852ZM44.088,29.888Q45.96,29.744,47.916,29.744Q49.872,29.744,51.3,30.704Q52.728,31.664,52.728,33.488Q52.728,34.856,51.972,36.032Q51.216,37.208,50.16,37.808Q51.864,38.336,53.016,39.632Q54.168,40.928,54.168,42.536Q54.168,44.792,52.74,45.968Q51.312,47.144,48.828,47.144Q46.344,47.144,44.088,46.952L44.088,29.888ZM48.96,46.112Q50.712,46.112,51.84,45.14Q52.968,44.168,52.968,42.656Q52.968,41.144,51.876,40.04Q50.784,38.936,48.888,38.528Q48,38.336,46.836,38.336Q45.672,38.336,45.24,38.336L45.24,45.992Q46.296,46.112,48.96,46.112ZM51.576,33.452Q51.576,32.144,50.484,31.424Q49.392,30.704,48.036,30.704Q46.68,30.704,45.24,30.8L45.24,37.352Q45.552,37.352,46.416,37.352Q47.28,37.352,48.96,37.496Q50.04,36.92,50.808,35.84Q51.576,34.76,51.576,33.452ZM60.096,41.048L57.624,47L56.4,47L63.624,29.72L64.296,29.72L71.544,47L70.248,47L67.776,41.048L60.096,41.048ZM63.888,31.64Q63.864,31.664,63.792,31.928Q63.456,32.96,63.144,33.68L60.504,40.064L67.368,40.064L64.728,33.704Q63.888,31.88,63.888,31.64ZM82.968,47.288Q79.224,47.288,76.536,44.732Q73.848,42.176,73.848,38.42Q73.848,34.664,76.2,32.108Q78.552,29.552,82.224,29.552Q85.104,29.552,88.056,30.512L87.744,31.472Q84.864,30.608,82.224,30.608Q79.08,30.608,77.088,32.864Q75.096,35.12,75.096,38.384Q75.096,41.648,77.412,43.94Q79.728,46.232,82.968,46.232Q85.8,46.232,87.864,45.368L88.224,46.184Q87.312,46.712,85.836,47Q84.36,47.288,82.968,47.288ZM103.056,29.84L95.76,38.144Q97.224,39.896,99.132,42.056Q101.04,44.216,101.604,44.72Q102.168,45.224,102.492,45.476Q102.816,45.728,103.488,46.028Q104.16,46.328,104.928,46.424L104.904,47.192Q103.464,47.168,102.528,46.748Q101.592,46.328,100.896,45.644Q100.2,44.96,97.86,42.284Q95.52,39.608,94.344,38.192L101.712,29.84L103.056,29.84ZM93.888,29.84L93.888,47L92.736,47L92.736,29.84L93.888,29.84Z" fill="#313131" fill-opacity="1"/><path d="M16.0558,31.4719L16.056,31.472L16.368,30.512L16.3604,30.5095L16.3461,30.5049Q14.3772,29.8669,12.4402,29.6561Q11.4842,29.552,10.536,29.552Q6.864,29.552,4.512,32.108Q2.16,34.664,2.16,38.396Q2.16,42.128,4.752,44.708Q7.344,47.288,11.1,47.288Q14.856,47.288,16.944,45.992L16.944,38.408L15.792,38.408L15.792,45.464Q14.9771,45.8027,13.9801,45.992Q12.7163,46.232,11.16,46.232Q7.92,46.232,5.664,43.952Q3.408,41.672,3.408,38.396Q3.408,35.12,5.4,32.864Q7.392,30.608,10.536,30.608Q13.1759,30.608,16.0558,31.4719ZM92.956,47L93.888,47L93.888,29.84L92.736,29.84L92.736,47L92.956,47ZM43.92,21L45.072,21L45.072,8.616L45.024,6.576L45,6.048Q45.336,6.504,46.536,7.872L47.92,9.46648L49.072,10.7937L53.432,15.8168L54.584,17.144L56.2137,19.0215L57.2555,20.2218L58.056,21.144L58.584,21.144L58.584,3.84L57.432,3.84L57.432,16.272Q57.432,17.76,57.528,18.912Q56.904,18.096,55.752,16.728L54.584,15.3815L53.432,14.0534L49.072,9.02685L47.92,7.69875L46.4317,5.98293L45.3204,4.70172L44.448,3.696L43.92,3.696L43.92,21ZM68.088,21L69.24,21L69.24,4.848L75.048,4.848L75.048,3.84L62.28,3.84L62.28,4.848L68.088,4.848L68.088,21ZM67.3697,37.048L67.368,37.044L66.957,36.064L66.7198,35.4987L66.1308,34.0943L65.9781,33.7302L64.4389,30.0607L64.296,29.72L63.624,29.72L63.4811,30.0618L62.8316,31.6153L62.8213,31.64L62.8126,31.6609L61.7942,34.0969L61.3769,35.095L61.2981,35.2835L61.175,35.5781L60.9719,36.064L60.5605,37.048L60.504,37.1831L58.1655,42.7768L57.6274,44.064L57.624,44.0722L56.5811,46.5669L56.4,47L57.624,47L58.8434,44.064L60.096,41.048L67.776,41.048L69.0286,44.064L70.248,47L71.544,47L71.3517,46.5416L70.3125,44.064L70.248,43.9102L67.3697,37.048ZM67.368,40.064L60.504,40.064L61.7512,37.048L61.7682,37.007L62.1581,36.064L62.3871,35.5103L62.7591,34.6107L62.8038,34.5027L63.144,33.68Q63.3773,33.1416,63.624,32.4288Q63.7072,32.1883,63.792,31.928Q63.864,31.664,63.888,31.64Q63.888,31.8073,64.296,32.7439Q64.4734,33.1512,64.728,33.704L65.5082,35.5835L65.7076,36.064L66.0976,37.0036L66.1161,37.048L67.368,40.064ZM54.1394,42.0369Q54.0323,41.1172,53.5242,40.3061Q53.3068,39.9591,53.016,39.632Q52.9633,39.5727,52.9095,39.5151Q51.7861,38.3119,50.16,37.808Q51.216,37.208,51.972,36.032Q52.1451,35.7627,52.2785,35.4834Q52.5125,34.9938,52.6247,34.4733Q52.728,33.9937,52.728,33.488Q52.728,31.664,51.3,30.704Q49.872,29.744,47.916,29.744Q45.96,29.744,44.088,29.888L44.088,46.952Q46.344,47.144,48.828,47.144Q51.0172,47.144,52.3862,46.2306Q52.5705,46.1076,52.74,45.968Q54.168,44.792,54.168,42.536Q54.168,42.2826,54.1394,42.0369ZM45.24,43.0283L45.24,45.992Q46.1137,46.0913,48.088,46.1084Q48.5001,46.112,48.96,46.112Q50.712,46.112,51.84,45.14Q52.968,44.168,52.968,42.656Q52.968,41.7625,52.5866,41.0114Q52.381,40.6065,52.0645,40.2429Q51.9747,40.1398,51.876,40.04Q51.509,39.669,51.0512,39.3766Q50.2759,38.8813,49.24,38.6115Q49.0676,38.5667,48.888,38.528Q48.5126,38.4468,48.088,38.4Q47.508,38.336,46.836,38.336L45.24,38.336L45.24,43.0283ZM48.088,37.427Q48.4923,37.4559,48.96,37.496Q49.0883,37.4276,49.2122,37.352Q49.2263,37.3434,49.24,37.335Q50.0967,36.805,50.7413,35.9321Q50.7749,35.8865,50.808,35.84Q51.0786,35.4595,51.2538,35.0507Q51.4603,34.569,51.5345,34.0481Q51.576,33.7562,51.576,33.452Q51.576,32.144,50.484,31.424Q49.8998,31.0388,49.24,30.8597Q49.1168,30.8263,48.9911,30.8Q48.5553,30.709,48.088,30.7043Q48.0621,30.704,48.036,30.704Q46.68,30.704,45.24,30.8L45.24,37.352L46.416,37.352Q47.0395,37.352,48.088,37.427ZM84.1282,29.6561Q86.0652,29.8669,88.0341,30.5049L88.0486,30.5096L88.056,30.512L87.744,31.472L87.7438,31.4719Q84.8639,30.608,82.224,30.608Q79.08,30.608,77.088,32.864Q75.096,35.12,75.096,38.384Q75.096,41.648,77.412,43.94Q79.728,46.232,82.968,46.232Q85.738,46.232,87.7732,45.4054Q87.8189,45.3869,87.864,45.368L88.224,46.184Q88.2169,46.1881,88.2092,46.1926Q87.7454,46.4587,87.1373,46.6634Q86.5532,46.8601,85.836,47Q85.0616,47.1511,84.3104,47.2229Q83.6297,47.288,82.968,47.288Q79.224,47.288,76.536,44.732Q73.848,42.176,73.848,38.42Q73.848,34.664,76.2,32.108Q78.552,29.552,82.224,29.552Q83.1722,29.552,84.1282,29.6561ZM96.736,35.4805L94.344,38.192Q95.2183,39.2448,96.736,40.9939Q97.2596,41.5973,97.86,42.284Q97.874,42.3,97.888,42.316Q100.204,44.9641,100.896,45.644Q101.284,46.0253,101.747,46.3246Q102.114,46.5621,102.528,46.748Q103.369,47.1252,104.615,47.183Q104.722,47.1879,104.832,47.1906Q104.868,47.1914,104.904,47.192L104.928,46.424Q104.922,46.4233,104.917,46.4226Q104.155,46.3258,103.488,46.028Q102.816,45.728,102.492,45.476Q102.168,45.224,101.604,44.72Q101.04,44.216,99.132,42.056Q98.4844,41.3229,97.888,40.6368Q97.7978,40.533,97.7061,40.4273Q97.2021,39.8459,96.736,39.2995Q96.2255,38.7011,95.76,38.144L96.736,37.0332L97.6853,35.9527L97.888,35.722L101.712,31.3697L102.469,30.5079L103.056,29.84L101.712,29.84L97.888,34.1747L96.736,35.4805ZM21.72,12.408Q21.72,16.152,24.108,18.72Q26.496,21.288,30.144,21.288Q33.792,21.288,36.192,18.72Q38.592,16.152,38.592,12.408Q38.592,8.664,36.192,6.108Q33.792,3.552,30.144,3.552Q26.496,3.552,24.108,6.108Q21.72,8.664,21.72,12.408ZM14.736,6.132Q12.072,3.672,8.112,3.672Q5.616,3.672,3.168,3.84L3.168,20.952Q6.24,21.216,8.664,21.216Q12.36,21.216,14.832,19.224Q16.032,18.24,16.716,16.596Q17.4,14.952,17.4,12.816Q17.4,8.592,14.736,6.132ZM7.168,4.73395Q7.62573,4.728,8.112,4.728Q11.52,4.728,13.836,6.912Q16.152,9.096,16.152,12.792Q16.152,16.488,14.1,18.324Q12.048,20.16,8.664,20.16Q7.86565,20.16,7.168,20.1442Q5.43267,20.1049,4.32,19.968L4.32,4.848Q5.56997,4.75472,7.168,4.73395ZM22.968,12.408Q22.968,9.096,24.96,6.852Q26.952,4.608,30.144,4.608Q33.336,4.608,35.34,6.852Q37.344,9.096,37.344,12.408Q37.344,15.72,35.34,17.976Q33.336,20.232,30.156,20.232Q26.976,20.232,24.972,17.976Q22.968,15.72,22.968,12.408ZM21.888,38.408Q21.888,42.152,24.276,44.72Q26.664,47.288,30.312,47.288Q33.96,47.288,36.36,44.72Q38.76,42.152,38.76,38.408Q38.76,34.664,36.36,32.108Q33.96,29.552,30.312,29.552Q26.664,29.552,24.276,32.108Q21.888,34.664,21.888,38.408ZM23.136,38.408Q23.136,35.096,25.128,32.852Q27.12,30.608,30.312,30.608Q33.504,30.608,35.508,32.852Q37.512,35.096,37.512,38.408Q37.512,41.72,35.508,43.976Q33.504,46.232,30.324,46.232Q27.144,46.232,25.14,43.976Q23.136,41.72,23.136,38.408Z" fill-rule="evenodd" fill="#313131" fill-opacity="1"/></g></g></svg>