<svg xmlns="http://www.w3.org/2000/svg" xmlns:xlink="http://www.w3.org/1999/xlink" fill="none" version="1.1" width="97" height="79" viewBox="0 0 97 79"><g><path d="M0,65.0588L32.5972,65.0588L32.5972,74.3529L0,74.3529L0,65.0588ZM0,32.5294L41.9107,32.5294L41.9107,41.8235L0,41.8235L0,32.5294ZM0,0L93.1349,0L93.1349,9.29412L0,9.29412L0,0ZM86.9601,41.9397L92.3433,40.1227L97,48.1714L92.7344,51.9123C93.2713,54.4526,93.2713,57.0768,92.7344,59.6171L97,63.358L92.3433,71.4067L86.9601,69.5897C85.0508,71.3091,82.7783,72.6335,80.2776,73.4468L79.1647,79L69.8512,79L68.7336,73.4421C66.262,72.6361,63.9872,71.3222,62.0558,69.5851L56.6726,71.4067L52.0158,63.358L56.2814,59.6171C55.7445,57.0768,55.7445,54.4526,56.2814,51.9123L52.0158,48.1714L56.6726,40.1227L62.0558,41.9397C63.965,40.2203,66.2375,38.8959,68.7382,38.0826L69.8512,32.5294L79.1647,32.5294L80.2823,38.0873C82.7783,38.8959,85.0508,40.2249,86.9601,41.9444L86.9601,41.9397ZM74.5079,60.4118C77.0798,60.4118,79.1647,58.3312,79.1647,55.7647C79.1647,53.1982,77.0798,51.1176,74.5079,51.1176C71.9361,51.1176,69.8512,53.1982,69.8512,55.7647C69.8512,58.3312,71.9361,60.4118,74.5079,60.4118Z" fill="#615D5D" fill-opacity="1" style="mix-blend-mode:passthrough"/></g></svg>