<svg xmlns="http://www.w3.org/2000/svg" xmlns:xlink="http://www.w3.org/1999/xlink" fill="none" version="1.1" width="213" height="224" viewBox="0 0 213 224"><g><path d="M213,76.6316L213,112C213,141.297,165.312,165.053,106.5,165.053C47.6883,165.053,0,141.297,0,112L0,76.6316C0,105.928,47.6883,129.684,106.5,129.684C165.312,129.684,213,105.928,213,76.6316ZM0,135.579C0,164.876,47.6883,188.632,106.5,188.632C165.312,188.632,213,164.876,213,135.579L213,170.947C213,200.244,165.312,224,106.5,224C47.6883,224,0,200.244,0,170.947L0,135.579ZM106.5,106.105C47.6883,106.105,0,82.3495,0,53.0526C0,23.7558,47.6883,0,106.5,0C165.312,0,213,23.7558,213,53.0526C213,82.3495,165.312,106.105,106.5,106.105Z" fill="#615D5D" fill-opacity="1" style="mix-blend-mode:passthrough"/></g></svg>