<svg xmlns="http://www.w3.org/2000/svg" xmlns:xlink="http://www.w3.org/1999/xlink" fill="none" version="1.1" width="522.0000054976908" height="72.00003985826334" viewBox="0 0 522.0000054976908 72.00003985826334"><g transform="matrix(1,-7.63568266393122e-8,7.63568266393122e-8,1,-7.635986420950758e-8,7.635683241247193e-8)"><path d="M21.99200007635663,53.824039781906706Q30.18400007635663,53.824039781906706,35.144000076356626,49.40803978190671Q40.10400007635663,44.992039781906705,40.10400007635663,36.096039781906704Q40.10400007635663,27.200039781906707,34.504000076356625,21.95203978190671Q28.904000076356628,16.704039781906708,20.712000076356627,16.704039781906708Q14.888000076356628,16.704039781906708,11.752000076356628,16.96003978190671L11.752000076356628,53.376039781906705Q15.592000076356628,53.824039781906706,21.99200007635663,53.824039781906706ZM20.712000076356627,14.080039781906708Q30.31200007635663,14.080039781906708,36.74400007635663,20.000039781906708Q43.17600007635663,25.92003978190671,43.17600007635663,36.096039781906704Q43.17600007635663,46.272039781906706,37.25600007635663,51.39203978190671Q31.336000076356626,56.51203978190671,21.99200007635663,56.51203978190671Q15.528000076356628,56.51203978190671,8.680000076356627,55.87203978190671L8.680000076356627,14.464039781906708Q13.800000076356628,14.080039781906708,20.712000076356627,14.080039781906708ZM74.34400007635662,56.64003978190671Q65.44800007635662,56.64003978190671,59.43200007635663,50.43203978190671Q53.416000076356625,44.224039781906704,53.416000076356625,35.23203978190671Q53.416000076356625,26.240039781906706,59.43200007635663,20.032039781906708Q65.44800007635662,13.824039781906707,74.34400007635662,13.824039781906707Q83.24000007635662,13.824039781906707,89.25600007635663,20.032039781906708Q95.27200007635663,26.240039781906706,95.27200007635663,35.23203978190671Q95.27200007635663,44.224039781906704,89.25600007635663,50.43203978190671Q83.24000007635662,56.64003978190671,74.34400007635662,56.64003978190671ZM74.37600007635663,16.448039781906708Q66.66400007635663,16.448039781906708,61.57600007635663,21.88803978190671Q56.48800007635663,27.328039781906707,56.48800007635663,35.23203978190671Q56.48800007635663,43.13603978190671,61.57600007635663,48.544039781906704Q66.66400007635663,53.952039781906706,74.37600007635663,53.952039781906706Q82.08800007635662,53.952039781906706,87.14400007635663,48.544039781906704Q92.20000007635663,43.13603978190671,92.20000007635663,35.23203978190671Q92.20000007635663,27.328039781906707,87.14400007635663,21.88803978190671Q82.08800007635662,16.448039781906708,74.37600007635663,16.448039781906708ZM108.07200007635663,56.00003978190671L108.07200007635663,14.208039781906708L109.48000007635663,14.208039781906708L136.74400007635663,45.568039781906705Q138.21600007635664,47.23203978190671,139.46400007635663,48.864039781906705Q140.71200007635662,50.49603978190671,140.77600007635664,50.56003978190671Q140.64800007635662,49.02403978190671,140.64800007635662,44.544039781906704L140.64800007635662,14.464039781906708L143.59200007635664,14.464039781906708L143.59200007635664,56.25603978190671L142.18400007635663,56.25603978190671L114.40800007635663,24.384039781906708L110.88800007635663,20.096039781906708Q111.01600007635663,21.37603978190671,111.01600007635663,26.112039781906706L111.01600007635663,56.00003978190671L108.07200007635663,56.00003978190671ZM166.37600007635663,17.08803978190671L152.29600007635662,17.08803978190671L152.29600007635662,14.464039781906708L183.33600007635664,14.464039781906708L183.33600007635664,17.08803978190671L169.25600007635663,17.08803978190671L169.25600007635663,56.00003978190671L166.37600007635663,56.00003978190671L166.37600007635663,17.08803978190671ZM235.49600007635664,12.288039781906708Q227.11200007635662,12.288039781906708,221.80000007635664,18.304039781906706Q216.48800007635663,24.320039781906708,216.48800007635663,33.056039781906705Q216.48800007635663,41.79203978190671,222.50400007635662,47.87203978190671Q228.52000007635664,53.952039781906706,237.16000007635662,53.952039781906706Q244.58400007635663,53.952039781906706,249.51200007635663,51.90403978190671L249.51200007635663,33.08803978190671L252.58400007635663,33.08803978190671L252.58400007635663,53.312039781906705Q247.01600007635662,56.76803978190671,237.00000007635663,56.76803978190671Q226.98400007635664,56.76803978190671,220.07200007635663,49.888039781906706Q213.16000007635662,43.00803978190671,213.16000007635662,33.056039781906705Q213.16000007635662,23.104039781906707,219.43200007635662,16.288039781906708Q225.70400007635664,9.472039781906707,235.49600007635664,9.472039781906707Q243.17600007635662,9.472039781906707,251.04800007635663,12.032039781906708L250.21600007635664,14.592039781906708Q242.53600007635663,12.288039781906708,235.49600007635664,12.288039781906708ZM272.13600007635665,49.92003978190671Q265.7680000763566,43.07203978190671,265.7680000763566,33.08803978190671Q265.7680000763566,23.104039781906707,272.13600007635665,16.288039781906708Q278.50400007635665,9.472039781906707,288.23200007635666,9.472039781906707Q297.9600000763566,9.472039781906707,304.36000007635664,16.288039781906708Q310.7600000763566,23.104039781906707,310.7600000763566,33.08803978190671Q310.7600000763566,43.07203978190671,304.36000007635664,49.92003978190671Q297.9600000763566,56.76803978190671,288.23200007635666,56.76803978190671Q278.50400007635665,56.76803978190671,272.13600007635665,49.92003978190671ZM274.40800007635664,18.272039781906706Q269.09600007635663,24.256039781906708,269.09600007635663,33.08803978190671Q269.09600007635663,41.92003978190671,274.4400000763566,47.93603978190671Q279.7840000763566,53.952039781906706,288.26400007635664,53.952039781906706Q296.74400007635666,53.952039781906706,302.08800007635665,47.93603978190671Q307.43200007635664,41.92003978190671,307.43200007635664,33.08803978190671Q307.43200007635664,24.256039781906708,302.08800007635665,18.272039781906706Q296.74400007635666,12.288039781906708,288.23200007635666,12.288039781906708Q279.72000007635665,12.288039781906708,274.40800007635664,18.272039781906706ZM348.0080000763566,10.368039781906708Q353.0000000763566,9.984039781906707,358.21600007635664,9.984039781906707Q363.43200007635664,9.984039781906707,367.24000007635664,12.544039781906708Q371.04800007635663,15.104039781906707,371.04800007635663,19.968039781906707Q371.04800007635663,23.616039781906707,369.0320000763566,26.752039781906706Q367.01600007635665,29.88803978190671,364.2000000763566,31.488039781906707Q368.74400007635666,32.89603978190671,371.8160000763566,36.352039781906704Q374.8880000763566,39.80803978190671,374.8880000763566,44.096039781906704Q374.8880000763566,50.11203978190671,371.0800000763566,53.248039781906705Q367.2720000763566,56.38403978190671,360.64800007635665,56.38403978190671Q354.02400007635663,56.38403978190671,348.0080000763566,55.87203978190671L348.0080000763566,10.368039781906708ZM361.0000000763566,53.632039781906705Q365.67200007635665,53.632039781906705,368.68000007635663,51.04003978190671Q371.6880000763566,48.44803978190671,371.6880000763566,44.416039781906704Q371.6880000763566,40.38403978190671,368.77600007635664,37.440039781906705Q365.8640000763566,34.49603978190671,360.8080000763566,33.40803978190671Q358.4400000763566,32.89603978190671,355.33600007635664,32.89603978190671Q352.23200007635666,32.89603978190671,351.0800000763566,32.89603978190671L351.0800000763566,53.312039781906705Q353.89600007635664,53.632039781906705,361.0000000763566,53.632039781906705ZM367.9760000763566,19.872039781906707Q367.9760000763566,16.384039781906708,365.06400007635665,14.464039781906708Q362.1520000763566,12.544039781906708,358.53600007635663,12.544039781906708Q354.92000007635664,12.544039781906708,351.0800000763566,12.800039781906708L351.0800000763566,30.272039781906706Q351.9120000763566,30.272039781906706,354.21600007635664,30.272039781906706Q356.5200000763566,30.272039781906706,361.0000000763566,30.656039781906706Q363.8800000763566,29.12003978190671,365.9280000763566,26.240039781906706Q367.9760000763566,23.360039781906707,367.9760000763566,19.872039781906707ZM394.53600007635663,40.12803978190671L387.94400007635664,56.00003978190671L384.68000007635663,56.00003978190671L403.94400007635664,9.920039781906707L405.7360000763566,9.920039781906707L425.06400007635665,56.00003978190671L421.60800007635663,56.00003978190671L415.01600007635665,40.12803978190671L394.53600007635663,40.12803978190671ZM404.64800007635665,15.040039781906707Q404.58400007635663,15.104039781906707,404.3920000763566,15.808039781906707Q403.4960000763566,18.560039781906706,402.6640000763566,20.480039781906708L395.62400007635665,37.504039781906705L413.9280000763566,37.504039781906705L406.8880000763566,20.544039781906708Q404.64800007635665,15.680039781906707,404.64800007635665,15.040039781906707ZM459.3680000763566,56.76803978190671Q449.38400007635664,56.76803978190671,442.21600007635664,49.952039781906706Q435.04800007635663,43.13603978190671,435.04800007635663,33.120039781906705Q435.04800007635663,23.104039781906707,441.3200000763566,16.288039781906708Q447.5920000763566,9.472039781906707,457.38400007635664,9.472039781906707Q465.06400007635665,9.472039781906707,472.9360000763566,12.032039781906708L472.1040000763566,14.592039781906708Q464.4240000763566,12.288039781906708,457.38400007635664,12.288039781906708Q449.0000000763566,12.288039781906708,443.6880000763566,18.304039781906706Q438.3760000763566,24.320039781906708,438.3760000763566,33.02403978190671Q438.3760000763566,41.72803978190671,444.55200007635665,47.84003978190671Q450.72800007635664,53.952039781906706,459.3680000763566,53.952039781906706Q466.92000007635664,53.952039781906706,472.4240000763566,51.64803978190671L473.38400007635664,53.824039781906706Q470.9520000763566,55.23203978190671,467.01600007635665,56.00003978190671Q463.0800000763566,56.76803978190671,459.3680000763566,56.76803978190671ZM516.7760000763566,10.240039781906708L497.3200000763566,32.38403978190671Q501.2240000763566,37.056039781906705,506.31200007635664,42.81603978190671Q511.4000000763566,48.57603978190671,512.9040000763566,49.92003978190671Q514.4080000763566,51.26403978190671,515.2720000763567,51.93603978190671Q516.1360000763566,52.608039781906704,517.9280000763566,53.40803978190671Q519.7200000763567,54.208039781906706,521.7680000763567,54.464039781906706L521.7040000763566,56.51203978190671Q517.8640000763567,56.44803978190671,515.3680000763567,55.32803978190671Q512.8720000763567,54.208039781906706,511.01600007635665,52.38403978190671Q509.16000007635665,50.56003978190671,502.92000007635664,43.42403978190671Q496.68000007635663,36.288039781906704,493.5440000763566,32.51203978190671L513.1920000763566,10.240039781906708L516.7760000763566,10.240039781906708ZM492.3280000763566,10.240039781906708L492.3280000763566,56.00003978190671L489.2560000763566,56.00003978190671L489.2560000763566,10.240039781906708L492.3280000763566,10.240039781906708Z" fill="#3D3D3D" fill-opacity="1"/><path d="M222.55000007635664,18.96593978190671Q227.56300007635662,13.288039781906708,235.49600007635664,13.288039781906708Q242.38900007635664,13.288039781906708,249.92900007635663,15.549839781906707L250.86500007635664,15.830739781906708L252.30800007635662,11.390239781906708L251.35700007635663,11.081039781906707Q243.33500007635664,8.472039781906709,235.49600007635664,8.472039781906709Q225.2650000763566,8.472039781906709,218.69600007635663,15.610939781906708Q212.16000007635662,22.714039781906706,212.16000007635662,33.056039781906705Q212.16000007635662,43.423539781906705,219.36700007635662,50.596739781906706Q226.57100007635663,57.76803978190671,237.00000007635663,57.76803978190671Q247.30100007635662,57.76803978190671,253.11100007635662,54.16163978190671L253.58400007635663,53.868339781906705L253.58400007635663,32.08803978190671L248.51200007635663,32.08803978190671L248.51200007635663,51.22443978190671Q243.92300007635663,52.952039781906706,237.16000007635662,52.952039781906706Q228.93700007635664,52.952039781906706,223.21500007635663,47.168639781906705Q217.48800007635663,41.38083978190671,217.48800007635663,33.056039781906705Q217.48800007635663,24.698339781906707,222.55000007635664,18.96593978190671ZM249.51200007635663,51.90403978190671Q244.58400007635663,53.952039781906706,237.16000007635662,53.952039781906706Q228.52000007635664,53.952039781906706,222.50400007635662,47.87203978190671Q216.48800007635663,41.79203978190671,216.48800007635663,33.056039781906705Q216.48800007635663,24.320039781906708,221.80000007635664,18.304039781906706Q227.11200007635662,12.288039781906708,235.49600007635664,12.288039781906708Q242.53600007635663,12.288039781906708,250.21600007635664,14.592039781906708L250.73900007635663,12.983039781906708L251.04800007635663,12.032039781906708L251.02800007635662,12.025639781906708Q250.56100007635663,11.873939781906708,250.09400007635662,11.731039781906707Q242.71000007635664,9.472039781906707,235.49600007635664,9.472039781906707Q225.70400007635664,9.472039781906707,219.43200007635662,16.288039781906708Q213.16000007635662,23.104039781906707,213.16000007635662,33.056039781906705Q213.16000007635662,43.00803978190671,220.07200007635663,49.888039781906706Q226.98400007635664,56.76803978190671,237.00000007635663,56.76803978190671Q247.01600007635662,56.76803978190671,252.58400007635663,53.312039781906705L252.58400007635663,33.08803978190671L249.51200007635663,33.08803978190671L249.51200007635663,51.90403978190671ZM264.7680000763566,33.08803978190671Q264.7680000763566,43.46503978190671,271.4040000763566,50.60103978190671Q278.0680000763566,57.76803978190671,288.23200007635666,57.76803978190671Q298.39400007635663,57.76803978190671,305.09100007635664,50.60283978190671Q311.7600000763566,43.46653978190671,311.7600000763566,33.08803978190671Q311.7600000763566,22.70813978190671,305.0890000763566,15.603539781906708Q298.3930000763566,8.472039781906709,288.23200007635666,8.472039781906709Q278.0700000763566,8.472039781906709,271.4050000763566,15.605339781906707Q264.7680000763566,22.709639781906706,264.7680000763566,33.08803978190671ZM441.5270000763566,50.676739781906704Q448.9840000763566,57.76803978190671,459.3680000763566,57.76803978190671Q463.17700007635665,57.76803978190671,467.20800007635665,56.981539781906704Q471.3080000763566,56.181439781906704,473.8850000763566,54.68943978190671L474.66100007635663,54.24043978190671L472.9430000763566,50.346739781906706L472.03800007635664,50.72563978190671Q466.7190000763566,52.952039781906706,459.3680000763566,52.952039781906706Q451.13900007635664,52.952039781906706,445.2550000763566,47.129239781906705Q439.3760000763566,41.310739781906705,439.3760000763566,33.02403978190671Q439.3760000763566,24.698439781906707,444.4380000763566,18.96593978190671Q449.45100007635665,13.288039781906708,457.38400007635664,13.288039781906708Q464.2770000763566,13.288039781906708,471.81700007635663,15.549839781906707L472.7530000763566,15.830739781906708L474.19600007635665,11.390239781906708L473.24500007635663,11.081039781906707Q465.22300007635664,8.472039781906709,457.38400007635664,8.472039781906709Q447.15300007635665,8.472039781906709,440.58400007635663,15.610939781906708Q434.04800007635663,22.713939781906706,434.04800007635663,33.120039781906705Q434.04800007635663,43.565239781906705,441.5270000763566,50.676739781906704ZM394.53600007635663,40.12803978190671L387.94400007635664,56.00003978190671L384.68000007635663,56.00003978190671L385.09800007635664,55.00003978190671L403.94400007635664,9.920039781906707L405.7360000763566,9.920039781906707L424.6450000763566,55.00003978190671L425.06400007635665,56.00003978190671L421.60800007635663,56.00003978190671L415.01600007635665,40.12803978190671L394.53600007635663,40.12803978190671ZM414.3490000763566,41.12803978190671L420.9410000763566,57.00003978190671L426.5680000763566,57.00003978190671L406.40100007635664,8.920039781906707L403.27800007635665,8.920039781906707L383.1780000763566,57.00003978190671L388.61200007635665,57.00003978190671L395.2030000763566,41.12803978190671L414.3490000763566,41.12803978190671ZM358.21600007635664,8.984039781906707Q352.9620000763566,8.984039781906707,347.9310000763566,9.370979781906707L347.0080000763566,9.442009781906707L347.0080000763566,56.79053978190671L347.92300007635663,56.86843978190671Q353.9810000763566,57.38403978190671,360.64800007635665,57.38403978190671Q367.6310000763566,57.38403978190671,371.71600007635664,54.01993978190671Q375.8880000763566,50.58393978190671,375.8880000763566,44.096039781906704Q375.8880000763566,39.42793978190671,372.5630000763566,35.68763978190671Q369.9640000763566,32.76353978190671,366.3760000763566,31.22373978190671Q368.3470000763566,29.66723978190671,369.8730000763566,27.292839781906707Q372.04800007635663,23.909839781906708,372.04800007635663,19.968039781906707Q372.04800007635663,14.571239781906707,367.79800007635663,11.714139781906708Q363.73700007635665,8.984039781906707,358.21600007635664,8.984039781906707ZM365.42000007635664,31.913339781906707Q369.1660000763566,33.37063978190671,371.8160000763566,36.352039781906704Q374.8880000763566,39.80803978190671,374.8880000763566,44.096039781906704Q374.8880000763566,50.11203978190671,371.0800000763566,53.248039781906705Q367.2720000763566,56.38403978190671,360.64800007635665,56.38403978190671Q354.02400007635663,56.38403978190671,348.0080000763566,55.87203978190671L348.0080000763566,10.368039781906708Q353.0000000763566,9.984039781906707,358.21600007635664,9.984039781906707Q363.43200007635664,9.984039781906707,367.24000007635664,12.544039781906708Q371.04800007635663,15.104039781906707,371.04800007635663,19.968039781906707Q371.04800007635663,23.616039781906707,369.0320000763566,26.752039781906706Q367.41500007635665,29.26763978190671,365.28300007635664,30.794939781906706Q364.75700007635663,31.17153978190671,364.2000000763566,31.488039781906707Q364.82400007635664,31.681339781906708,365.42000007635664,31.913339781906707ZM493.3280000763566,31.245339781906708L493.3280000763566,9.240039781906708L488.2560000763566,9.240039781906708L488.2560000763566,57.00003978190671L493.3280000763566,57.00003978190671L493.3280000763566,33.81443978190671Q496.4500000763566,37.544039781906704,502.1670000763566,44.082339781906704Q508.4330000763566,51.247839781906706,510.3150000763566,53.09723978190671Q512.2990000763566,55.04693978190671,514.9590000763566,56.24043978190671Q517.6420000763567,57.444539781906705,521.6870000763566,57.511939781906705L522.6730000763566,57.52833978190671L522.7960000763567,53.584739781906706L521.8920000763567,53.471739781906706Q519.9920000763566,53.23423978190671,518.3360000763566,52.49493978190671Q516.6540000763566,51.74423978190671,515.8860000763566,51.14663978190671Q515.0490000763566,50.495439781906704,513.5700000763567,49.17433978190671Q512.1100000763566,47.86933978190671,507.0610000763566,42.15403978190671Q502.3390000763566,36.807539781906705,498.6380000763566,32.39953978190671L517.5270000763567,10.900079781906708L518.9860000763566,9.240039781906708L512.7410000763566,9.240039781906708L493.3280000763566,31.245339781906708ZM492.3280000763566,32.378839781906706L492.3280000763566,10.240039781906708L489.2560000763566,10.240039781906708L489.2560000763566,56.00003978190671L492.3280000763566,56.00003978190671L492.3280000763566,32.378839781906706ZM497.3200000763566,32.38403978190671L515.8970000763567,11.240039781906708L516.7760000763566,10.240039781906708L513.1920000763566,10.240039781906708L493.5440000763566,32.51203978190671Q496.68000007635663,36.288039781906704,502.92000007635664,43.42403978190671Q509.16000007635665,50.56003978190671,511.01600007635665,52.38403978190671Q512.8720000763567,54.208039781906706,515.3680000763567,55.32803978190671Q517.5310000763566,56.29883978190671,520.7050000763567,56.476239781906706Q520.8190000763566,56.482639781906705,520.9340000763566,56.48803978190671Q521.3120000763566,56.505539781906705,521.7040000763566,56.51203978190671L521.7680000763567,54.464039781906706Q519.7200000763567,54.208039781906706,517.9280000763566,53.40803978190671Q516.1360000763566,52.608039781906704,515.2720000763567,51.93603978190671Q514.4080000763566,51.26403978190671,512.9040000763566,49.92003978190671Q511.4000000763566,48.57603978190671,506.31200007635664,42.81603978190671Q501.2240000763566,37.056039781906705,497.3200000763566,32.38403978190671ZM265.7680000763566,33.08803978190671Q265.7680000763566,43.07203978190671,272.13600007635665,49.92003978190671Q278.50400007635665,56.76803978190671,288.23200007635666,56.76803978190671Q297.9600000763566,56.76803978190671,304.36000007635664,49.92003978190671Q310.7600000763566,43.07203978190671,310.7600000763566,33.08803978190671Q310.7600000763566,23.104039781906707,304.36000007635664,16.288039781906708Q297.9600000763566,9.472039781906707,288.23200007635666,9.472039781906707Q278.50400007635665,9.472039781906707,272.13600007635665,16.288039781906708Q265.7680000763566,23.104039781906707,265.7680000763566,33.08803978190671ZM442.21600007635664,49.952039781906706Q449.38400007635664,56.76803978190671,459.3680000763566,56.76803978190671Q463.0800000763566,56.76803978190671,467.01600007635665,56.00003978190671Q470.9520000763566,55.23203978190671,473.38400007635664,53.824039781906706L472.4240000763566,51.64803978190671Q466.92000007635664,53.952039781906706,459.3680000763566,53.952039781906706Q450.72800007635664,53.952039781906706,444.55200007635665,47.84003978190671Q438.3760000763566,41.72803978190671,438.3760000763566,33.02403978190671Q438.3760000763566,24.320039781906708,443.6880000763566,18.304039781906706Q449.0000000763566,12.288039781906708,457.38400007635664,12.288039781906708Q464.4240000763566,12.288039781906708,472.1040000763566,14.592039781906708L472.62700007635664,12.983039781906708L472.9360000763566,12.032039781906708L472.91500007635665,12.025239781906707Q472.44900007635664,11.873739781906707,471.98200007635666,11.731039781906707Q464.59800007635664,9.472039781906707,457.38400007635664,9.472039781906707Q447.5920000763566,9.472039781906707,441.3200000763566,16.288039781906708Q435.04800007635663,23.104039781906707,435.04800007635663,33.120039781906705Q435.04800007635663,43.13603978190671,442.21600007635664,49.952039781906706ZM269.09600007635663,33.08803978190671Q269.09600007635663,24.256039781906708,274.40800007635664,18.272039781906706Q279.72000007635665,12.288039781906708,288.23200007635666,12.288039781906708Q296.74400007635666,12.288039781906708,302.08800007635665,18.272039781906706Q307.43200007635664,24.256039781906708,307.43200007635664,33.08803978190671Q307.43200007635664,41.92003978190671,302.08800007635665,47.93603978190671Q296.74400007635666,53.952039781906706,288.26400007635664,53.952039781906706Q279.7840000763566,53.952039781906706,274.4400000763566,47.93603978190671Q269.09600007635663,41.92003978190671,269.09600007635663,33.08803978190671ZM365.06400007635665,14.464039781906708Q367.9760000763566,16.384039781906708,367.9760000763566,19.872039781906707Q367.9760000763566,23.360039781906707,365.9280000763566,26.240039781906706Q363.8800000763566,29.12003978190671,361.0000000763566,30.656039781906706Q356.5200000763566,30.272039781906706,354.21600007635664,30.272039781906706L351.0800000763566,30.272039781906706L351.0800000763566,12.800039781906708Q354.92000007635664,12.544039781906708,358.53600007635663,12.544039781906708Q362.1520000763566,12.544039781906708,365.06400007635665,14.464039781906708ZM352.0800000763566,13.739239781906708Q355.39400007635663,13.544039781906708,358.53600007635663,13.544039781906708Q361.8520000763566,13.544039781906708,364.51400007635664,15.298939781906707Q366.9760000763566,16.922439781906707,366.9760000763566,19.872039781906707Q366.9760000763566,23.04073978190671,365.1130000763566,25.660539781906706Q363.29300007635663,28.219639781906707,360.7840000763566,29.634039781906708Q356.4840000763566,29.272039781906706,354.21600007635664,29.272039781906706L352.0800000763566,29.272039781906706L352.0800000763566,13.739239781906708ZM404.1140000763566,16.647439781906705Q403.3660000763566,18.859839781906707,402.6640000763566,20.480039781906708L396.03800007635664,36.504039781906705L395.62400007635665,37.504039781906705L413.9280000763566,37.504039781906705L413.5130000763566,36.504039781906705L406.8880000763566,20.544039781906708Q405.7290000763566,18.027939781906706,405.17000007635664,16.64243978190671Q404.64800007635665,15.349039781906708,404.64800007635665,15.040039781906707Q404.58400007635663,15.104039781906707,404.3920000763566,15.808039781906707Q404.25200007635664,16.23833978190671,404.1140000763566,16.647439781906705ZM404.68400007635665,18.053639781906707Q404.1210000763566,19.633039781906707,403.5820000763566,20.87763978190671L397.12000007635663,36.504039781906705L412.43000007635663,36.504039781906705L405.9720000763566,20.945539781906707Q405.2000000763566,19.26763978190671,404.68400007635665,18.053639781906707ZM58.71390007635663,51.127939781906704Q65.02450007635663,57.64003978190671,74.34400007635662,57.64003978190671Q83.66340007635662,57.64003978190671,89.97410007635663,51.127939781906704Q96.27200007635663,44.629039781906705,96.27200007635663,35.23203978190671Q96.27200007635663,25.83503978190671,89.97410007635663,19.336139781906706Q83.66350007635663,12.824039781906707,74.34400007635662,12.824039781906707Q65.02460007635663,12.824039781906707,58.71390007635663,19.336139781906706Q52.416000076356625,25.83503978190671,52.416000076356625,35.23203978190671Q52.416000076356625,44.629039781906705,58.71390007635663,51.127939781906704ZM37.42120007635663,19.264239781906706Q30.70220007635663,13.080039781906708,20.712000076356627,13.080039781906708Q13.762600076356629,13.080039781906708,8.605210076356627,13.466839781906707L7.680000076356627,13.536239781906707L7.680000076356627,56.782939781906705L8.586950076356628,56.86773978190671Q15.481400076356628,57.51203978190671,21.99200007635663,57.51203978190671Q31.70850007635663,57.51203978190671,37.91020007635663,52.14843978190671Q44.17600007635663,46.72933978190671,44.17600007635663,36.096039781906704Q44.17600007635663,25.48133978190671,37.42120007635663,19.264239781906706ZM107.07200007635663,13.208039781906708L107.07200007635663,57.00003978190671L112.01600007635663,57.00003978190671L112.01600007635663,26.112039781906706Q112.01600007635663,24.327939781906707,111.99800007635663,23.02373978190671L113.64400007635663,25.02993978190671L141.72900007635664,57.25603978190671L144.59200007635664,57.25603978190671L144.59200007635664,13.464039781906708L139.64800007635662,13.464039781906708L139.64800007635662,44.544039781906704Q139.64800007635662,46.22283978190671,139.66600007635662,47.495939781906706Q138.64800007635662,46.211039781906706,137.49900007635662,44.91193978190671L109.93600007635663,13.208039781906708L107.07200007635663,13.208039781906708ZM140.69300007635664,48.82483978190671Q140.64800007635662,47.20283978190671,140.64800007635662,44.544039781906704L140.64800007635662,14.464039781906708L143.59200007635664,14.464039781906708L143.59200007635664,56.25603978190671L142.18400007635663,56.25603978190671L114.40800007635663,24.384039781906708L111.96200007635663,21.403939781906708L110.88800007635663,20.096039781906708Q110.94200007635662,20.63233978190671,110.97300007635663,21.77543978190671Q111.01600007635663,23.360539781906706,111.01600007635663,26.112039781906706L111.01600007635663,56.00003978190671L108.07200007635663,56.00003978190671L108.07200007635663,14.208039781906708L109.48000007635663,14.208039781906708L136.74400007635663,45.568039781906705Q138.21600007635664,47.23203978190671,139.46400007635663,48.864039781906705Q139.58700007635662,49.025239781906706,139.70400007635664,49.17703978190671Q140.71800007635662,50.502539781906705,140.77600007635664,50.56003978190671Q140.72400007635662,49.935739781906705,140.69300007635664,48.82483978190671ZM270.09600007635663,33.08803978190671Q270.09600007635663,24.635939781906707,275.15600007635663,18.935939781906708Q280.1690000763566,13.288039781906708,288.23200007635666,13.288039781906708Q296.2960000763566,13.288039781906708,301.3420000763566,18.938139781906706Q306.43200007635664,24.637539781906707,306.43200007635664,33.08803978190671Q306.43200007635664,41.54003978190671,301.3400000763566,47.27193978190671Q296.29500007635664,52.952039781906706,288.26400007635664,52.952039781906706Q280.23300007635663,52.952039781906706,275.1880000763566,47.27193978190671Q270.09600007635663,41.54013978190671,270.09600007635663,33.08803978190671ZM166.37600007635663,18.08803978190671L166.37600007635663,17.08803978190671L152.29600007635662,17.08803978190671L152.29600007635662,14.464039781906708L183.33600007635664,14.464039781906708L183.33600007635664,17.08803978190671L169.25600007635663,17.08803978190671L169.25600007635663,56.00003978190671L166.37600007635663,56.00003978190671L166.37600007635663,18.08803978190671ZM170.25600007635663,18.08803978190671L170.25600007635663,57.00003978190671L165.37600007635663,57.00003978190671L165.37600007635663,18.08803978190671L151.29600007635662,18.08803978190671L151.29600007635662,13.464039781906708L184.33600007635664,13.464039781906708L184.33600007635664,18.08803978190671L170.25600007635663,18.08803978190671ZM59.43200007635663,50.43203978190671Q65.44800007635662,56.64003978190671,74.34400007635662,56.64003978190671Q83.24000007635662,56.64003978190671,89.25600007635663,50.43203978190671Q95.27200007635663,44.224039781906704,95.27200007635663,35.23203978190671Q95.27200007635663,26.240039781906706,89.25600007635663,20.032039781906708Q83.24000007635662,13.824039781906707,74.34400007635662,13.824039781906707Q65.44800007635662,13.824039781906707,59.43200007635663,20.032039781906708Q53.416000076356625,26.240039781906706,53.416000076356625,35.23203978190671Q53.416000076356625,44.224039781906704,59.43200007635663,50.43203978190671ZM36.74400007635663,20.000039781906708Q30.31200007635663,14.080039781906708,20.712000076356627,14.080039781906708Q13.800000076356628,14.080039781906708,8.680000076356627,14.464039781906708L8.680000076356627,55.87203978190671Q15.528000076356628,56.51203978190671,21.99200007635663,56.51203978190671Q31.336000076356626,56.51203978190671,37.25600007635663,51.39203978190671Q43.17600007635663,46.272039781906706,43.17600007635663,36.096039781906704Q43.17600007635663,25.92003978190671,36.74400007635663,20.000039781906708ZM61.57600007635663,21.88803978190671Q66.66400007635663,16.448039781906708,74.37600007635663,16.448039781906708Q82.08800007635662,16.448039781906708,87.14400007635663,21.88803978190671Q92.20000007635663,27.328039781906707,92.20000007635663,35.23203978190671Q92.20000007635663,43.13603978190671,87.14400007635663,48.544039781906704Q82.08800007635662,53.952039781906706,74.37600007635663,53.952039781906706Q66.66400007635663,53.952039781906706,61.57600007635663,48.544039781906704Q56.48800007635663,43.13603978190671,56.48800007635663,35.23203978190671Q56.48800007635663,27.328039781906707,61.57600007635663,21.88803978190671ZM35.144000076356626,49.40803978190671Q30.18400007635663,53.824039781906706,21.99200007635663,53.824039781906706Q15.592000076356628,53.824039781906706,11.752000076356628,53.376039781906705L11.752000076356628,16.96003978190671Q14.888000076356628,16.704039781906708,20.712000076356627,16.704039781906708Q28.904000076356628,16.704039781906708,34.504000076356625,21.95203978190671Q40.10400007635663,27.200039781906707,40.10400007635663,36.096039781906704Q40.10400007635663,44.992039781906705,35.144000076356626,49.40803978190671ZM12.752000076356628,17.890939781906706Q15.737800076356628,17.704039781906708,20.712000076356627,17.704039781906708Q28.50870007635663,17.704039781906708,33.82020007635663,22.681739781906707Q39.10400007635663,27.633339781906706,39.10400007635663,36.096039781906704Q39.10400007635663,44.543439781906706,34.47900007635663,48.661139781906705Q29.803400076356628,52.824039781906706,21.99200007635663,52.824039781906706Q16.364200076356628,52.824039781906706,12.752000076356628,52.47653978190671L12.752000076356628,17.890939781906706ZM62.30630007635663,22.57113978190671Q67.09790007635662,17.448039781906708,74.37600007635663,17.448039781906708Q81.65220007635662,17.448039781906708,86.41150007635663,22.568839781906707Q91.20000007635663,27.720939781906708,91.20000007635663,35.23203978190671Q91.20000007635663,42.741439781906706,86.41350007635663,47.86113978190671Q81.65390007635662,52.952039781906706,74.37600007635663,52.952039781906706Q67.09620007635662,52.952039781906706,62.304300076356625,47.85883978190671Q57.48800007635663,42.73953978190671,57.48800007635663,35.23203978190671Q57.48800007635663,27.722839781906707,62.30630007635663,22.57113978190671ZM368.0270000763566,50.282539781906706Q365.30000007635664,52.632039781906705,361.0000000763566,52.632039781906705Q354.97100007635663,52.632039781906705,352.0800000763566,52.40253978190671L352.0800000763566,33.89603978190671L355.33600007635664,33.89603978190671Q358.33300007635665,33.89603978190671,360.59800007635664,34.385639781906704Q365.36200007635665,35.410939781906706,368.0650000763566,38.14323978190671Q370.6880000763566,40.79503978190671,370.6880000763566,44.416039781906704Q370.6880000763566,47.98963978190671,368.0270000763566,50.282539781906706ZM352.0800000763566,32.89603978190671L355.33600007635664,32.89603978190671Q358.4400000763566,32.89603978190671,360.8080000763566,33.40803978190671Q365.8640000763566,34.49603978190671,368.77600007635664,37.440039781906705Q371.6880000763566,40.38403978190671,371.6880000763566,44.416039781906704Q371.6880000763566,48.44803978190671,368.68000007635663,51.04003978190671Q365.67200007635665,53.632039781906705,361.0000000763566,53.632039781906705Q353.89600007635664,53.632039781906705,351.0800000763566,53.312039781906705L351.0800000763566,32.89603978190671L352.0800000763566,32.89603978190671Z" fill-rule="evenodd" fill="#3D3D3D" fill-opacity="1"/></g></svg>